<?xml version="1.0" encoding="UTF-8"?>
<svg xmlns="http://www.w3.org/2000/svg" viewBox="0 0 91.15 52.45">
  <defs>
    <style>
      .cls-1, .cls-2, .cls-3 {
        stroke-width: 0px;
      }

      .cls-1, .cls-4 {
        fill: #231f20;
      }

      .cls-5 {
        stroke-width: .5px;
      }

      .cls-5, .cls-3 {
        fill: #fff;
      }

      .cls-5, .cls-6, .cls-7 {
        stroke: #231f20;
        stroke-linecap: round;
        stroke-linejoin: round;
      }

      .cls-2 {
        fill: #fdb913;
      }

      .cls-4 {
        font-family: Calibri-Bold, Calibri;
        font-size: 18.42px;
        font-weight: 700;
      }

      .cls-6 {
        stroke-width: .82px;
      }

      .cls-6, .cls-7 {
        fill: none;
      }

      .cls-7 {
        stroke-width: 1.07px;
      }
    </style>
  </defs>
  <g id="D">
    <polygon class="cls-2" points="22.62 .77 .29 25.06 22.62 49.35 71.62 49.35 71.62 .77 22.62 .77"/>
    <rect class="cls-3" x="69.5" y=".73" width="21.33" height="49"/>
    <path class="cls-6" d="M23.1.41h67.27c.2,0,.36.16.36.36v48.58c0,.2-.16.36-.36.36H23.1c-.1,0-.2-.04-.26-.12L.5,25.3c-.13-.14-.13-.35,0-.48L22.84.52c.07-.07.16-.12.26-.12Z"/>
    <path class="cls-5" d="M55.89,25.6c0,2.2-.27,4.09-.8,5.65-.53,1.57-1.3,2.84-2.29,3.83-1,.99-2.21,1.72-3.63,2.18s-3.12.7-5.09.7h-5.3c-.38,0-.69-.12-.95-.36s-.39-.63-.39-1.18V15.49c0-.54.13-.94.39-1.18s.57-.36.95-.36h5.7c1.98,0,3.66.25,5.04.75,1.38.5,2.54,1.24,3.48,2.23.94.98,1.66,2.2,2.15,3.65.49,1.45.74,3.13.74,5.03ZM51.22,25.77c0-1.14-.12-2.2-.37-3.17-.25-.98-.64-1.83-1.18-2.54-.54-.72-1.24-1.28-2.09-1.68-.85-.4-1.97-.6-3.35-.6h-2.28v16.34h2.35c1.24,0,2.28-.17,3.12-.52.85-.35,1.55-.87,2.12-1.57s.99-1.57,1.27-2.61c.28-1.04.42-2.25.42-3.64Z"/>
  </g>
  <g id="Layer_11" data-name="Layer 11">
    <path class="cls-1" d="M86.78,15.17c.08.23.12.4.14.54.02.13,0,.23-.08.3s-.19.11-.37.12c-.18.02-.42.02-.72.02s-.57,0-.75-.01c-.18,0-.31-.03-.41-.06-.09-.03-.16-.07-.2-.12-.04-.05-.07-.12-.09-.2l-.82-2.45h-4.57l-.77,2.38c-.02.09-.06.16-.1.22-.04.06-.11.11-.2.14-.09.03-.22.06-.39.07-.17.01-.38.02-.65.02-.29,0-.51,0-.68-.03-.16-.02-.28-.06-.34-.14-.06-.07-.08-.17-.07-.31.02-.13.07-.31.14-.53l3.75-10.8c.04-.11.08-.19.13-.26.05-.07.13-.12.24-.15.11-.03.26-.06.46-.07s.45-.01.77-.01c.37,0,.66,0,.88.01.22,0,.39.03.51.07.12.03.21.09.26.16s.1.16.14.28l3.76,10.79ZM81.2,6.25h0l-1.72,5.17h3.45l-1.72-5.17Z"/>
    <line class="cls-7" x1="81.33" y1="30.37" x2="81.33" y2="20.01"/>
    <polyline class="cls-7" points="84.08 22.71 81.33 19.96 78.59 22.71"/>
    <text class="cls-4" transform="translate(77.35 45.94) scale(1 1.01)"><tspan x="0" y="0">E</tspan></text>
  </g>
</svg>